#!OML:ASF G:\ViconDB\ViconDB\414\test\team2\shane.ASF
:FULLY-SPECIFIED
:DEGREES
408
root 0.644548 16.943 35.7662 -8.17751 7.78072 -3.54626
lowerback 8.55842 1.40794 4.95126
upperback 3.9066 2.28452 1.47245
thorax -0.609165 1.19163 -1.45711
lowerneck -9.63784 -2.66885 -7.98329
upperneck 35.8258 -2.46025 1.93047
head 13.952 -1.82155 1.85325
rclavicle 3.13086e-015 1.66979e-014
rhumerus -48.1069 13.6232 -98.6857
rradius 64.0808
rwrist 374.741
rhand -22.1211 -9.08293
rfingers 7.12502
rthumb 4.29179 -39.0194
lclavicle -1.88845e-015 -3.18055e-015
lhumerus -49.6344 -27.3556 105.104
lradius 43.3987
lwrist -13.3225
lhand -37.8201 6.83108
lfingers 7.12502
lthumb -10.8658 36.53
rfemur 29.9189 -10.3184 16.7045
rtibia -3.18055e-015
rfoot -13.7379 -1.66012
rtoes -12.7377
lfemur -23.7623 17.2036 -14.1056
ltibia 29.3903
lfoot -29.4216 -22.0304
ltoes -10.5506
409
root 0.691097 16.9049 35.922 -8.00794 7.31936 -3.69857
lowerback 8.91749 1.40524 5.36743
upperback 3.83481 2.3367 1.29699
thorax -0.85168 1.21613 -1.88811
lowerneck -9.60577 -2.60444 -7.19149
upperneck 34.0742 -2.29026 1.06469
head 13.1272 -1.72942 1.378
rclavicle 4.99571e-014 4.96962e-015
rhumerus -48.2767 16.9816 -98.7531
rradius 66.6738
rwrist 373.602
rhand -22.7021 -8.74069
rfingers 7.12502
rthumb 3.73083 -38.6878
lclavicle -1.88845e-015 -3.18055e-015
lhumerus -49.6344 -27.3556 105.104
lradius 43.3987
lwrist -13.3225
lhand -37.8201 6.83108
lfingers 7.12502
lthumb -10.8658 36.53
rfemur 30.3048 -9.96084 16.8288
rtibia -8.26944e-014
rfoot -13.8988 -1.76551
rtoes -13.7863
lfemur -24.2475 17.5957 -14.1104
ltibia 29.4901
lfoot -30.2588 -20.7187
ltoes -11.329
410
root 0.717341 16.8912 36.1114 -7.30135 5.18301 -5.6679
lowerback 8.08617 1.85327 7.13941
upperback 3.78093 3.00856 1.83063
thorax -0.328254 1.57891 -2.34311
lowerneck -10.0107 -2.38324 -7.14928
upperneck 32.6144 -1.92134 0.912859
head 12.5712 -1.55868 1.35126
rclavicle -6.23687e-014 -1.13307e-014
rhumerus -47.9982 18.7112 -98.5252
rradius 67.6723
rwrist 373.273
rhand -23.0434 -8.72339
rfingers 7.12502
rthumb 3.40117 -38.676
lclavicle -1.88845e-015 -3.18055e-015
lhumerus -49.6344 -27.3556 105.104
lradius 43.3987
lwrist -13.3225
lhand -37.8201 6.83108
lfingers 7.12502
lthumb -10.8658 36.53
rfemur 29.7726 -8.21186 19.097
rtibia 3.18055e-014
rfoot -13.9508 -1.60085
rtoes -13.9073
lfemur -24.6835 16.9564 -11.5533
ltibia 29.7155
lfoot -29.5724 -17.313
ltoes -12.3121
411
root 0.72654 16.8776 36.2606 -6.21716 6.58217 -3.9336
lowerback 7.70374 1.50082 4.646
upperback 3.55107 2.34236 1.44485
thorax -0.515209 1.21258 -1.29934
lowerneck -10.3312 -2.10208 -7.1094
upperneck 31.1602 -1.45093 0.676772
head 12.0166 -1.34927 1.3082
rclavicle 1.43373e-014 2.08724e-014
rhumerus -47.6996 20.4075 -98.02
rradius 68.4653
rwrist 373.162
rhand -23.1474 -8.38966
rfingers 7.12502
rthumb 3.3008 -38.3439
lclavicle -1.88845e-015 -3.18055e-015
lhumerus -49.6344 -27.3556 105.104
lradius 43.3987
lwrist -13.3225
lhand -37.8201 6.83108
lfingers 7.12502
lthumb -10.8658 36.53
rfemur 29.471 -9.43736 17.1002
rtibia 5.08889e-014
rfoot -14.0971 -1.61646
rtoes -14.3756
lfemur -26.1728 16.4861 -14.3392
ltibia 29.8683
lfoot -28.3644 -17.2102
ltoes -11.1132
412
root 0.769283 16.8392 36.4272 -6.07757 6.21336 -3.95861
lowerback 7.81645 1.47527 4.46972
upperback 3.62708 2.30018 1.47869
thorax -0.510253 1.1904 -1.16525
lowerneck -10.6318 -1.80594 -7.03606
upperneck 29.7711 -0.987324 0.472963
head 11.5034 -1.13222 1.27169
rclavicle -2.13072e-014 2.26615e-014
rhumerus -47.6996 20.4075 -98.02
rradius 68.4653
rwrist 373.162
rhand -23.1474 -8.38966
rfingers 7.12502
rthumb 3.3008 -38.3439
lclavicle -1.88845e-015 -3.18055e-015
lhumerus -49.6344 -27.3556 105.104
lradius 43.3987
lwrist -13.3225
lhand -37.8201 6.83108
lfingers 7.12502
lthumb -10.8658 36.53
rfemur 29.9495 -9.08997 16.9368
rtibia 1.04958e-013
rfoot -14.1245 -1.5238
rtoes -14.4772
lfemur -26.0035 15.5865 -14.2566
ltibia 30.1908
lfoot -27.3858 -14.7891
ltoes -10.3913
413
root 0.819167 16.7942 36.6003 -5.8916 5.81292 -3.94734
lowerback 7.66501 1.48101 4.32345
upperback 3.7749 2.28318 1.47817
thorax -0.280796 1.18655 -1.07486
lowerneck -10.8594 -1.54702 -6.98168
upperneck 28.3212 -0.601993 0.314408
head 10.9724 -0.942118 1.24512
rclavicle -3.94836e-014 -2.23633e-014
rhumerus -46.6305 22.9989 -96.6821
rradius 69.3706
rwrist 373.197
rhand -21.8223 -6.69531
rfingers 7.12502
rthumb 4.58036 -36.6258
lclavicle -1.88845e-015 -3.18055e-015
lhumerus -49.6344 -27.3556 105.104
lradius 43.3987
lwrist -13.3225
lhand -37.8201 6.83108
lfingers 7.12502
lthumb -10.8658 36.53
rfemur 30.3727 -8.71827 16.7686
rtibia 2.8625e-014
rfoot -14.0533 -1.60547
rtoes -15.8181
lfemur -25.8827 15.248 -14.3214
ltibia 30.6279
lfoot -26.8574 -12.7452
ltoes -10.7848
414
root 0.871052 16.7439 36.7764 -5.81813 5.29959 -3.97359
lowerback 7.69508 1.55926 4.38398
upperback 3.88155 2.38727 1.3666
thorax -0.174108 1.24365 -1.22947
lowerneck -11.1023 -1.18699 -6.18877
upperneck 27.001 -0.0716072 -0.456906
head 10.5 -0.681366 0.892125
rclavicle -1.05356e-014 2.32578e-014
rhumerus -46.0696 23.725 -96.0372
rradius 69.6404
rwrist 372.972
rhand -21.0667 -5.93225
rfingers 7.12502
rthumb 5.30991 -35.8457
lclavicle -1.88845e-015 -3.18055e-015
lhumerus -49.6344 -27.3556 105.104
lradius 43.3987
lwrist -13.3225
lhand -37.8201 6.83108
lfingers 7.12502
lthumb -10.8658 36.53
rfemur 30.9294 -8.21767 16.6047
rtibia -9.54166e-015
rfoot -13.9306 -1.63509
rtoes -16.2338
lfemur -25.6446 15.3753 -14.415
ltibia 31.3819
lfoot -26.6587 -11.029
ltoes -11.1765
415
root 0.932534 16.6769 36.9698 -6.51462 3.69204 -5.59533
lowerback 8.17206 1.81196 6.19084
upperback 4.20524 2.86797 1.71557
thorax 0.00594451 1.51525 -1.91806
lowerneck -11.2964 -0.926602 -6.02293
upperneck 25.8414 0.240526 -0.473446
head 10.1002 -0.49967 0.892029
rclavicle -4.04775e-014 -9.0944e-015
rhumerus -45.4363 24.2437 -95.381
rradius 69.6404
rwrist 372.712
rhand -20.0542 -5.43392
rfingers 7.12502
rthumb 6.28753 -35.3206
lclavicle -1.88845e-015 -3.18055e-015
lhumerus -49.6344 -27.3556 105.104
lradius 43.3987
lwrist -13.3225
lhand -37.8201 6.83108
lfingers 7.12502
lthumb -10.8658 36.53
rfemur 32.1273 -6.80187 18.1364
rtibia 2.8625e-014
rfoot -13.7024 -1.57501
rtoes -17.1667
lfemur -24.3691 16.2971 -12.343
ltibia 32.2482
lfoot -26.5865 -9.5784
ltoes -11.3288
416
root 0.977744 16.6291 37.1577 -6.41292 3.35258 -5.69254
lowerback 8.07472 1.88824 6.12524
upperback 4.23636 2.95427 1.641
thorax 0.099077 1.56117 -1.95953
lowerneck -11.8043 -0.454565 -5.05732
upperneck 25.1414 0.887055 -1.18143
head 9.92955 -0.177235 0.554994
rclavicle 1.40609e-014 -7.57867e-015
rhumerus -44.8733 24.3493 -94.8387
rradius 69.323
rwrist 372.599
rhand -19.0367 -4.79308
rfingers 7.12502
rthumb 7.26977 -34.6482
lclavicle -1.88845e-015 -3.18055e-015
lhumerus -49.6344 -27.3556 105.104
lradius 43.3987
lwrist -13.3225
lhand -37.8201 6.83108
lfingers 7.12502
lthumb -10.8658 36.53
rfemur 32.7005 -6.47884 18.0395
rtibia -6.04305e-014
rfoot -13.3708 -1.5383
rtoes -18.7332
lfemur -24.1362 16.6534 -12.3649
ltibia 33.0497
lfoot -25.8957 -9.2025
ltoes -11.6535
417
root 1.02579 16.6002 37.3573 -6.33265 2.99173 -5.70257
lowerback 8.00732 1.92886 5.84379
upperback 4.24041 2.98237 1.56298
thorax 0.130545 1.57236 -1.88278
lowerneck -11.9622 0.00395978 -4.02457
upperneck 24.1967 1.4812 -2.00188
head 9.62139 0.120221 0.164107
rclavicle 6.94349e-015 -7.35503e-015
rhumerus -44.8733 24.3493 -94.8387
rradius 69.323
rwrist 372.599
rhand -19.0367 -4.79308
rfingers 7.12502
rthumb 7.26977 -34.6482
lclavicle -1.88845e-015 -3.18055e-015
lhumerus -49.6344 -27.3556 105.104
lradius 43.3987
lwrist -13.3225
lhand -37.8201 6.83108
lfingers 7.12502
lthumb -10.8658 36.53
rfemur 33.2805 -6.10154 17.8138
rtibia -1.59028e-014
rfoot -12.7593 -1.34671
rtoes -19.0615
lfemur -23.8632 17.1408 -12.5131
ltibia 33.7806
lfoot -24.9623 -9.67667
ltoes -11.6978
418
root 1.083 16.5838 37.5654 -6.23206 2.54392 -6.04919
lowerback 7.83171 1.97454 6.16775
upperback 4.1979 3.05185 1.45298
thorax 0.214045 1.61469 -2.17382
lowerneck -12.8564 0.334373 -4.6001
upperneck 24.3275 1.7994 -0.697567
head 9.8114 0.351181 0.75616
rclavicle 1.81018e-014 1.36167e-014
rhumerus -43.9129 24.6528 -94.2677
rradius 67.7277
rwrist 372.733
rhand -17.357 -4.22914
rfingers 7.12502
rthumb 8.89081 -34.0218
lclavicle 1.81018e-014 1.36167e-014
lhumerus -49.6344 -27.3556 105.104
lradius 43.3987
lwrist -13.3225
lhand -37.8201 6.83108
lfingers 7.12502
lthumb -10.8658 36.53
rfemur 33.7917 -5.69178 17.9714
rtibia -1.27222e-014
rfoot -11.8784 -1.06869
rtoes -20.395
lfemur -23.5917 17.0646 -12.1318
ltibia 34.2076
lfoot -22.8319 -9.94825
ltoes -10.3383
419
root 1.14133 16.5821 37.7804 -6.1423 2.10039 -6.23314
lowerback 7.67594 2.01363 6.2065
upperback 4.09303 3.09825 1.42527
thorax 0.198724 1.63595 -2.2229
lowerneck -12.2848 0.815721 -3.01662
upperneck 23.0748 2.40784 -2.19946
head 9.28677 0.638699 0.0339439
rclavicle -6.11263e-014 -1.70955e-014
rhumerus -43.5225 24.8075 -94.0681
rradius 66.3922
rwrist 372.727
rhand -16.9403 -4.00626
rfingers 7.12502
rthumb 9.29293 -33.7814
lclavicle 1.81018e-014 1.36167e-014
lhumerus -49.6344 -27.3556 105.104
lradius 43.3987
lwrist -13.3225
lhand -37.8201 6.83108
lfingers 7.12502
lthumb -10.8658 36.53
rfemur 34.2945 -5.22957 17.8921
rtibia 2.8625e-014
rfoot -10.666 -0.558883
rtoes -21.4847
lfemur -23.4105 16.5385 -11.8107
ltibia 34.4389
lfoot -19.4398 -9.20328
ltoes -8.12782
